<?xml version="1.0" encoding="UTF-8" standalone="no"?>
<!-- Created with Inkscape (http://www.inkscape.org/) -->

<svg
   width="69.957672mm"
   height="182.18192mm"
   viewBox="0 0 69.957671 182.18192"
   version="1.1"
   id="svg452"
   inkscape:version="1.2.2 (b0a8486541, 2022-12-01)"
   sodipodi:docname="metro_back.svg"
   xmlns:inkscape="http://www.inkscape.org/namespaces/inkscape"
   xmlns:sodipodi="http://sodipodi.sourceforge.net/DTD/sodipodi-0.dtd"
   xmlns="http://www.w3.org/2000/svg"
   xmlns:svg="http://www.w3.org/2000/svg">
  <sodipodi:namedview
     id="namedview454"
     pagecolor="#505050"
     bordercolor="#ffffff"
     borderopacity="1"
     inkscape:showpageshadow="0"
     inkscape:pageopacity="0"
     inkscape:pagecheckerboard="1"
     inkscape:deskcolor="#505050"
     inkscape:document-units="mm"
     showgrid="false"
     inkscape:zoom="0.99999999"
     inkscape:cx="126.5"
     inkscape:cy="273"
     inkscape:window-width="1628"
     inkscape:window-height="933"
     inkscape:window-x="0"
     inkscape:window-y="0"
     inkscape:window-maximized="1"
     inkscape:current-layer="g2508" />
  <defs
     id="defs449" />
  <g
     inkscape:label="Layer 1"
     inkscape:groupmode="layer"
     id="layer1"
     transform="translate(-96.001924,-21.494704)">
    <rect
       style="fill:none;fill-opacity:0.739819;stroke:none;stroke-width:1.958;stroke-linecap:butt;stroke-linejoin:round;stroke-dasharray:none;stroke-opacity:1;paint-order:markers fill stroke"
       id="rect31265"
       width="91.177368"
       height="181.69164"
       x="0"
       y="0"
       rx="0"
       ry="0" />
    <g
       id="g31263"
       transform="matrix(0.99190826,0,0,0.99190826,-438.77236,-18.042839)">
      <g
         id="g2508"
         transform="matrix(1.151736,0,0,1.151736,30.443467,-2.1359861)">
        <path
           style="fill:none;fill-opacity:1;stroke:#7b7a7a;stroke-width:2.2;stroke-linecap:round;stroke-linejoin:round;stroke-dasharray:none;stroke-opacity:1;paint-order:markers fill stroke"
           d="m 500.9974,132.02446 c 0.56269,0.42993 0.82577,3.50992 0.84345,5.2981 0.0168,1.70265 -0.7032,5.05957 -0.7032,5.05957"
           id="path18902"
           sodipodi:nodetypes="cac" />
        <path
           style="fill:none;fill-opacity:0.988688;stroke:#000000;stroke-width:2;stroke-linecap:butt;stroke-linejoin:round;stroke-opacity:1;paint-order:markers fill stroke"
           d="m 500.8668,163.85055 c 3.80043,3.42428 -6.565,11.95404 -11.34735,16.74482 -3.60304,3.6094 -8.20401,6.74847 -12.33248,9.21621 -4.69116,2.80408 -11.44631,4.95886 -18.16737,5.05773 l -46.78025,0.0868"
           id="path24830"
           sodipodi:nodetypes="csscc" />
        <path
           style="fill:#b17405;fill-opacity:0.988688;stroke:none;stroke-width:2;stroke-linejoin:round;stroke-opacity:1;paint-order:markers fill stroke"
           d="m 412.04398,36.611348 c 0,0 24.62477,-0.571297 36.86484,0.530431 4.82023,0.433869 9.88691,0.399082 14.71942,0.663036 9.46008,0.516714 20.74792,-2.368596 28.73028,-0.05493 3.20371,0.928584 6.62939,2.622974 7.56115,4.420362 2.52858,4.877699 2.20947,26.199695 2.20947,26.199695 l -0.77412,44.592538 c 0,0 0.0663,50.12651 0.0663,52.01277 0,3.04424 -7.75072,10.41835 -12.59769,14.91833 -3.73753,3.46996 -8.09671,6.93983 -12.33248,9.21621 -5.32726,2.86296 -10.8648,4.675 -17.50417,4.77386 H 412.3092 Z"
           id="path17602"
           sodipodi:nodetypes="cssssccsssccc" />
        <path
           style="fill:#e9d5b1;fill-opacity:1;stroke:#000000;stroke-width:1.34667;stroke-linecap:round;stroke-linejoin:round;stroke-dasharray:none;stroke-opacity:0.9819;paint-order:markers fill stroke"
           d="m 501.22917,67.160917 c 0,0 -1.4981,-0.9806 -2.76728,-1.61814 -2.26423,-1.137381 -5.04961,-2.261856 -7.62268,-3.136159 -1.08275,-0.367907 -2.04271,-0.923744 -2.54728,-1.881346 -1.25767,-2.386891 -0.92278,-5.017541 -0.87903,-7.715144 0.0283,-1.742083 0.25842,-3.475423 0.63137,-4.630055 0.18867,-0.584118 0.91303,-1.355893 1.4732,-1.1049 1.96084,0.878579 4.77996,2.400088 7.05031,4.156526 1.73853,1.344997 2.74989,1.945799 3.61813,3.965124 1.71456,3.987671 1.04326,11.964094 1.04326,11.964094"
           id="path17876"
           sodipodi:nodetypes="cssssssssc" />
        <g
           id="g1583"
           transform="matrix(-0.98396741,0,0,0.98396741,535.10414,-0.17398744)"
           style="fill:#222b3e;fill-opacity:1">
          <path
             style="fill:#222b3e;fill-opacity:1;stroke:#000000;stroke-width:1.7703;stroke-linecap:butt;stroke-linejoin:round;stroke-dasharray:none;stroke-opacity:0.993213;paint-order:markers fill stroke"
             d="m 34.28113,122.8104 c 0.200717,0.004 8.411531,3.40192 10.241471,4.11577 4.513457,1.69353 15.342293,4.111 17.885545,3.00192 2.543253,-1.10907 2.542531,-1.1189 3.814516,-3.63846 1.271986,-2.51956 0.305957,-43.564924 0.132543,-45.54893 -0.173416,-1.984006 -1.812039,-4.681887 -4.93191,-5.298299 -3.119871,-0.616412 -10.100313,0.780095 -14.761234,1.995048 -4.362175,1.137079 -11.379874,3.456925 -12.757892,3.755421 -0.0039,8.43e-4 -0.0077,0.0017 -0.01155,0.0025 -0.08838,0.01885 -0.152353,0.02894 -0.189558,0.02938"
             id="path17658"
             sodipodi:nodetypes="cczzzzsssc" />
          <path
             style="fill:#222b3e;fill-opacity:1;stroke:#000000;stroke-width:1.00774;stroke-linecap:round;stroke-linejoin:round;stroke-dasharray:none;stroke-opacity:0.993213;paint-order:markers fill stroke"
             d="m 36.738498,80.226689 -0.05341,43.869491"
             id="path18829"
             sodipodi:nodetypes="cc" />
          <path
             style="fill:#222b3e;fill-opacity:1;stroke:#000000;stroke-width:1.02381;stroke-linecap:round;stroke-linejoin:round;stroke-dasharray:none;stroke-opacity:0.993213;paint-order:markers fill stroke"
             d="m 49.476108,77.532855 0.05118,50.243515"
             id="path18831"
             sodipodi:nodetypes="cc" />
        </g>
        <g
           id="g1521"
           style="opacity:0">
          <path
             style="fill:#fff3cb;fill-opacity:1;stroke:#7b7b7b;stroke-width:2.19972322;stroke-linecap:round;stroke-linejoin:round;stroke-dasharray:none;stroke-opacity:0.993213;paint-order:markers fill stroke"
             d="m 486.94395,147.348 -8.62661,3.84447 v 14.25267 l 9.18922,-5.71982"
             id="path19529" />
          <path
             style="fill:#b17405;fill-opacity:0.631222;stroke:#7b7a7a;stroke-width:1.5;stroke-linecap:round;stroke-linejoin:round;stroke-dasharray:none;stroke-opacity:1;paint-order:markers fill stroke"
             d="M 487.85656,159.37532 487.29395,146.998"
             id="path19531" />
        </g>
        <path
           style="fill:none;fill-opacity:0.988688;stroke:#000000;stroke-width:2;stroke-linecap:round;stroke-linejoin:round;stroke-dasharray:none;stroke-opacity:0.993213;paint-order:markers fill stroke"
           d="m 456.29958,117.54962 v 2.82695 l -0.99311,1.72012 v 39.08077 l 1.4864,1.48641 v 1.87522"
           id="path23509"
           sodipodi:nodetypes="cccccc" />
        <path
           id="rect2308"
           style="fill:#222b3e;fill-opacity:1;stroke:#000000;stroke-width:1.71424;stroke-linecap:butt;stroke-linejoin:round;stroke-dasharray:none;paint-order:markers fill stroke"
           d="m 412.13347,127.86088 h 20.1943 c 3.62337,0 6.54035,-2.9479 6.54035,-6.60964 V 80.754059 c 0,-3.661743 -2.91698,-6.609645 -6.54035,-6.609645 h -20.28489"
           sodipodi:nodetypes="cssssc" />
        <ellipse
           style="fill:#d95f5f;fill-opacity:1;stroke:#7b7b7b;stroke-width:2.08827;stroke-linecap:square;stroke-dasharray:none;stroke-opacity:0.996606;paint-order:fill markers stroke"
           id="path387"
           cx="506.45343"
           cy="310.7114"
           rx="5.5677819"
           ry="6.8585954"
           transform="matrix(0.9523892,-0.30488491,0,1,0,0)" />
        <ellipse
           style="fill:#d95f5f;fill-opacity:1;stroke:#7b7b7b;stroke-width:2.08827;stroke-linecap:square;stroke-dasharray:none;stroke-opacity:0.996606;paint-order:fill markers stroke"
           id="ellipse1619"
           cx="507.39178"
           cy="311.18524"
           rx="5.5677819"
           ry="6.8585954"
           transform="matrix(0.9523892,-0.30488491,0,1,0,0)" />
      </g>
    </g>
  </g>
</svg>
