<?xml version="1.0" encoding="UTF-8" standalone="no"?>
<!-- Created with Inkscape (http://www.inkscape.org/) -->

<svg
   width="106.79792mm"
   height="70.704681mm"
   viewBox="0 0 106.79792 70.704681"
   version="1.1"
   id="svg4964"
   inkscape:version="1.2.2 (b0a8486541, 2022-12-01)"
   sodipodi:docname="u8_logo.svg"
   xmlns:inkscape="http://www.inkscape.org/namespaces/inkscape"
   xmlns:sodipodi="http://sodipodi.sourceforge.net/DTD/sodipodi-0.dtd"
   xmlns="http://www.w3.org/2000/svg"
   xmlns:svg="http://www.w3.org/2000/svg">
  <sodipodi:namedview
     id="namedview4966"
     pagecolor="#505050"
     bordercolor="#ffffff"
     borderopacity="1"
     inkscape:showpageshadow="0"
     inkscape:pageopacity="0"
     inkscape:pagecheckerboard="1"
     inkscape:deskcolor="#505050"
     inkscape:document-units="mm"
     showgrid="false"
     inkscape:zoom="0.2102413"
     inkscape:cx="0"
     inkscape:cy="49.942613"
     inkscape:window-width="951"
     inkscape:window-height="502"
     inkscape:window-x="0"
     inkscape:window-y="0"
     inkscape:window-maximized="1"
     inkscape:current-layer="layer1" />
  <defs
     id="defs4961" />
  <g
     inkscape:label="Layer 1"
     inkscape:groupmode="layer"
     id="layer1"
     transform="translate(-105.16884,-134.54173)">
    <path
       style="fill:#ffffff;fill-opacity:1;stroke-width:1"
       d="m 123.09261,204.74741 c -4.63853,-0.81454 -8.84537,-3.12446 -11.96295,-6.56873 -1.8137,-2.00375 -2.67289,-3.41307 -3.86827,-6.34511 -1.98691,-4.8735 -2.08838,-6.46542 -2.09055,-32.79784 l -0.002,-23.56376 h 6.9451 6.9451 l 0.006,24.05983 c 0.006,25.70039 0.062,26.70741 1.6589,29.89502 0.92924,1.85492 2.45587,3.46565 4.12295,4.35011 1.05854,0.56159 1.9192,0.70449 4.30714,0.71514 2.56006,0.0113 3.2182,-0.10626 4.63006,-0.82738 2.76599,-1.4128 4.72917,-5.04753 5.42382,-10.04186 0.22596,-1.62468 0.35597,-10.885 0.35597,-25.35515 v -22.79571 h 6.77975 6.77975 l -0.002,23.39839 c -10e-4,18.81212 -0.0965,24.02563 -0.48431,26.59842 -1.50422,9.97901 -6.57633,16.24942 -15.22291,18.81938 -3.07791,0.91483 -10.39146,1.14934 -14.3214,0.45924 z m 60.75228,0.009 c -7.23771,-1.44226 -12.85868,-6.11399 -14.98464,-12.45412 -1.66481,-4.96485 -1.3723,-9.94421 0.85172,-14.49804 1.42839,-2.92474 4.99277,-6.47134 7.96712,-7.9274 1.2278,-0.60104 2.23235,-1.13588 2.23235,-1.18851 0,-0.0526 -0.83648,-0.57427 -1.85888,-1.15923 -5.11344,-2.92563 -8.72412,-9.34932 -8.72412,-15.52096 0,-2.43612 1.08525,-6.64558 2.20952,-8.57021 1.42677,-2.44247 4.23793,-5.15098 6.6598,-6.41655 3.42939,-1.79209 5.35386,-2.24782 10.31239,-2.44208 6.38678,-0.25021 10.27293,0.72513 14.5413,3.64955 1.79317,1.22855 2.66487,2.15699 4.18972,4.46236 3.20482,4.8452 3.51796,11.83067 0.77418,17.27011 -1.28541,2.54828 -4.30277,5.61695 -7.11656,7.23761 l -1.97099,1.13523 2.81371,1.40637 c 6.61038,3.30408 10.18589,8.72593 10.2249,15.5049 0.0436,7.58548 -4.02774,14.49269 -10.32008,17.50823 -4.75671,2.27961 -12.20621,3.11771 -17.80144,2.00274 z m 9.05633,-9.77466 c 4.8314,-1.34168 7.25437,-9.41727 4.52016,-15.0654 -0.8772,-1.81205 -3.76997,-4.42063 -6.43382,-5.80178 l -2.0306,-1.0528 -1.87428,1.24407 c -4.03261,2.6767 -5.73423,5.31592 -6.07902,9.42861 -0.56068,6.68786 3.09121,11.60109 8.61909,11.59607 1.11608,-9.9e-4 2.59139,-0.15796 3.27847,-0.34877 z m 0.40536,-33.43248 c 3.6008,-3.81703 4.78982,-7.44313 3.68586,-11.24061 -1.13909,-3.91836 -3.73557,-6.05617 -7.32478,-6.03085 -7.98034,0.0562 -10.60318,10.94595 -4.0545,16.83378 1.90317,1.71111 3.70365,2.76594 4.75856,2.78784 0.45546,0.01 1.49174,-0.82036 2.93486,-2.35016 z"
       id="path410"
       sodipodi:nodetypes="cssccccsssccssccccssccsssssssssssssscssssssscsssssssscs" />
  </g>
</svg>
