<?xml version="1.0" encoding="UTF-8" standalone="no"?>
<!-- Created with Inkscape (http://www.inkscape.org/) -->

<svg
   width="350.30832mm"
   height="328.08334mm"
   viewBox="0 0 350.30832 328.08334"
   version="1.1"
   id="svg5"
   xml:space="preserve"
   inkscape:version="1.2.2 (b0a8486541, 2022-12-01)"
   sodipodi:docname="wireframe_lever.svg"
   inkscape:export-filename="wireframe_lever.png"
   inkscape:export-xdpi="300"
   inkscape:export-ydpi="300"
   xmlns:inkscape="http://www.inkscape.org/namespaces/inkscape"
   xmlns:sodipodi="http://sodipodi.sourceforge.net/DTD/sodipodi-0.dtd"
   xmlns="http://www.w3.org/2000/svg"
   xmlns:svg="http://www.w3.org/2000/svg"><sodipodi:namedview
     id="namedview7"
     pagecolor="#ffffff"
     bordercolor="#ffffff"
     borderopacity="1"
     inkscape:showpageshadow="0"
     inkscape:pageopacity="1"
     inkscape:pagecheckerboard="1"
     inkscape:deskcolor="#505050"
     inkscape:document-units="mm"
     showgrid="false"
     inkscape:zoom="0.4204826"
     inkscape:cx="788.37982"
     inkscape:cy="858.5373"
     inkscape:window-width="1634"
     inkscape:window-height="947"
     inkscape:window-x="0"
     inkscape:window-y="0"
     inkscape:window-maximized="1"
     inkscape:current-layer="layer1" /><defs
     id="defs2" /><g
     inkscape:label="Layer 1"
     inkscape:groupmode="layer"
     id="layer1"
     transform="translate(71.330009,15.541672)"><path
       style="fill:none;stroke:#000000;stroke-width:0.26458333;stroke-linecap:round;stroke-linejoin:round;paint-order:markers fill stroke;stroke-opacity:1;stroke-dasharray:none"
       d="m 135.84422,86.571591 -5.83879,3.964697 -4.30551,6.693157 -1.29781,6.980605 1.5731,7.15757 5.70246,7.1969 7.25228,3.77116 1.55704,0.39754 2.08435,0.0393 2.43829,-0.0393 2.08435,-0.19664 1.57309,-0.4326 7.17155,-4.02522 4.08787,-5.53392 1.64071,-7.17462 0.6396,-1.77976 -1.33482,-6.952152 -4.06005,-6.127436 -6.22914,-4.161751 m -0.38932,0.778642 5.83981,4.504993 4.06006,6.4516 1.39043,7.397094 -3.67074,1.77975 -6.00666,1.16796 -7.34147,0.66741 -7.3971,-0.3337 -6.28475,-0.9455 -4.61623,-1.77975 -1.76009,-1.82245"
       id="path369"
       sodipodi:nodetypes="cccccccccccccccccccccccccccccc" /><path
       style="fill:none;stroke:#000000;stroke-width:0.26458333;stroke-linejoin:round;paint-order:markers fill stroke;stroke-linecap:round;stroke-opacity:1;stroke-dasharray:none"
       d="m 136.7341,87.350229 -5.56173,4.783082 -3.67073,6.618454 -1.33482,7.285855 1.2792,7.00778 4.11568,1.66851 6.17351,0.9455 6.84092,0.11123 6.84092,-0.44494 5.45049,-1.39043 3.05895,-1.50167"
       id="path979" /><path
       style="fill:none;stroke:#000000;stroke-width:0.26458333;stroke-linecap:round;stroke-linejoin:round;paint-order:markers fill stroke;stroke-opacity:1;stroke-dasharray:none"
       d="m 138.45824,87.906402 -4.11568,5.339254 -2.83648,6.896544 -1.00111,7.61956 0.88987,6.61845 3.17019,5.45049 4.50499,0.61179 5.11679,0.0556 5.00555,-0.16685 4.61623,-1.2792 2.8921,-4.72747 1.22358,-7.17462 -1.00111,-7.397096 -3.2258,-6.840921 -4.65555,-5.16903 m -2.43704,0.484266 2.9213,5.35217 1.83536,7.119011 0.66741,8.00888 -0.77864,6.4516 -1.77975,5.00555 -2.77707,2.40999"
       id="path981"
       sodipodi:nodetypes="cccccccccccccccccccccc" /><path
       style="fill:none;stroke:#000000;stroke-width:0.26458333;stroke-linejoin:round;paint-order:markers fill stroke;stroke-linecap:round;stroke-opacity:1;stroke-dasharray:none"
       d="m 140.90539,88.351338 -2.00222,5.450491 -1.39043,7.285861 -0.38932,7.61956 0.44494,6.72969 1.33481,4.8387 1.96051,2.44715"
       id="path983"
       sodipodi:nodetypes="ccccccc" /><path
       style="fill:none;stroke:#000000;stroke-width:0.26458333;stroke-linejoin:round;paint-order:markers fill stroke;stroke-linecap:round;stroke-opacity:1;stroke-dasharray:none"
       d="m 143.85311,88.351338 0.3337,5.728576 0.3337,7.341476 0.0556,7.67518 -0.0556,6.61845 -0.16685,4.44938 -0.30589,2.5862"
       id="path985"
       sodipodi:nodetypes="ccccccc" /><path
       style="fill:none;stroke:#000000;stroke-width:0.26458333;stroke-linejoin:round;paint-order:markers fill stroke;stroke-linecap:round;stroke-opacity:1;stroke-dasharray:none"
       d="m 131.70859,118.57455 2.80082,1.20053"
       id="path987"
       sodipodi:nodetypes="cc" /><path
       style="fill:none;stroke:#000000;stroke-width:0.26458333;stroke-linejoin:round;paint-order:markers fill stroke;stroke-linecap:round;stroke-opacity:1;stroke-dasharray:none"
       d="m 125.70222,97.236894 1.68818,1.403635 4.00444,1.612901 6.06228,0.88987 7.00778,0.22247 6.89653,-0.55617 5.50611,-1.001108 3.05895,-1.668518 0.88988,-1.501666"
       id="path989"
       sodipodi:nodetypes="ccccccccc" /><path
       style="fill:none;stroke:#000000;stroke-width:0.26458333;stroke-linecap:round;stroke-linejoin:round;paint-order:markers fill stroke;stroke-opacity:1;stroke-dasharray:none"
       d="m 130.00543,90.536288 1.05571,1.541407 3.33703,1.223579 4.39377,0.444937 5.28363,0.166851 5.33926,-0.278085 4.33815,-0.556172 2.2803,-1.446049 0.72303,-1.056727"
       id="path991"
       sodipodi:nodetypes="ccccccccc" /><path
       style="fill:none;stroke:#000000;stroke-width:0.26458333;stroke-linejoin:round;paint-order:markers fill stroke;stroke-linecap:round;stroke-opacity:1;stroke-dasharray:none"
       d="m 135.85812,86.571587 0.86924,0.791557 1.67526,0.543258 2.52919,0.4646 2.97691,-0.01966 2.5584,-0.111233 2.61401,-0.556173 1.11234,-0.556173 0.38932,-0.778642 c -0.55266,-0.420273 -1.06429,-0.727453 -2.4057,-1.022638 -2.60154,-0.572489 -6.88539,-0.809666 -10.27967,0.210291 -0.71318,0.214305 -1.32465,0.704758 -2.0532,1.034817"
       id="path993"
       sodipodi:nodetypes="cccccccccssc" /><path
       style="fill:none;stroke:#000000;stroke-width:0.26458333;stroke-linecap:round;stroke-linejoin:round;stroke-dasharray:none;stroke-opacity:1;paint-order:markers fill stroke"
       d="m 149.37497,121.94717 v 47.60851"
       id="path1091" /><path
       style="fill:none;stroke:#000000;stroke-width:0.26458333;stroke-linecap:round;stroke-linejoin:round;stroke-dasharray:none;stroke-opacity:1;paint-order:markers fill stroke"
       d="M 148.66707,170.22653 V 122.18325"
       id="path1093" /><path
       style="fill:none;stroke:#000000;stroke-width:0.26458333;stroke-linecap:round;stroke-linejoin:round;stroke-dasharray:none;stroke-opacity:1;paint-order:markers fill stroke"
       d="m 147.25129,122.57545 v 48.04937"
       id="path1095" /><path
       style="fill:none;stroke:#000000;stroke-width:0.26458333;stroke-linecap:round;stroke-linejoin:round;stroke-dasharray:none;stroke-opacity:1;paint-order:markers fill stroke"
       d="M 145.12762,170.91634 V 122.8776"
       id="path1097"
       sodipodi:nodetypes="cc" /><path
       style="fill:none;stroke:#000000;stroke-width:0.26458333;stroke-linecap:round;stroke-linejoin:round;stroke-dasharray:none;stroke-opacity:1;paint-order:markers fill stroke"
       d="M 142.57134,122.77206 V 170.8598"
       id="path1099" /><path
       style="fill:none;stroke:#000000;stroke-width:0.26458333;stroke-linecap:round;stroke-linejoin:round;stroke-dasharray:none;stroke-opacity:1;paint-order:markers fill stroke"
       d="M 140.80161,170.59338 V 122.74035"
       id="path1101" /><path
       style="fill:none;stroke:#000000;stroke-width:0.26458333;stroke-linejoin:round;paint-order:markers fill stroke;stroke-linecap:round;stroke-opacity:1;stroke-dasharray:none"
       d="m 138.92995,122.33568 v 47.19706"
       id="path1159" /><path
       style="fill:none;stroke:#000000;stroke-width:0.26458333;stroke-linejoin:round;paint-order:markers fill stroke;stroke-dasharray:none;stroke-linecap:round;stroke-opacity:1"
       d="m 109.98221,183.56806 50.50045,20.24468 -1.77975,-5.45049 -3.89321,-6.78531 -4.44938,-6.11789 -5.00555,-5.22803 -5.67296,-3.8932 -5.56172,-2.78086 -5.11679,-1.33482 -5.22802,0.11124 -3.44827,0.77864 -5.00555,2.78086 -3.67074,4.44938 -1.66851,3.2258"
       id="path1924"
       sodipodi:nodetypes="cccccccccccccc" /><path
       style="fill:none;stroke:#000000;stroke-width:0.26458333;stroke-linecap:round;stroke-linejoin:round;stroke-dasharray:none;paint-order:markers fill stroke;stroke-opacity:1"
       d="m 160.48266,203.81274 18.07319,-10.52629"
       id="path1928" /><path
       style="fill:none;stroke:#000000;stroke-width:0.26458333;stroke-linecap:round;stroke-linejoin:round;stroke-dasharray:none;paint-order:markers fill stroke;stroke-opacity:1"
       d="m 160.48266,203.81274 18.07319,-10.52629"
       id="path1930" /><path
       style="fill:none;stroke:#000000;stroke-width:0.26458333;stroke-linecap:round;stroke-linejoin:round;stroke-dasharray:none;paint-order:markers fill stroke;stroke-opacity:1"
       d="m 158.70291,198.36225 17.96522,-9.79508"
       id="path1938" /><path
       style="fill:none;stroke:#000000;stroke-width:0.26458333;stroke-linecap:round;stroke-linejoin:round;stroke-dasharray:none;paint-order:markers fill stroke;stroke-opacity:1"
       d="m 154.8097,191.57694 18.24032,-9.77407"
       id="path1940" /><path
       style="fill:none;stroke:#000000;stroke-width:0.26458333;stroke-linecap:round;stroke-linejoin:round;stroke-dasharray:none;paint-order:markers fill stroke;stroke-opacity:1"
       d="m 150.36032,185.45905 18.28504,-9.55528"
       id="path1942" /><path
       style="fill:none;stroke:#000000;stroke-width:0.26458333;stroke-linecap:round;stroke-linejoin:round;stroke-dasharray:none;paint-order:markers fill stroke;stroke-opacity:1"
       d="m 145.35477,180.23102 18.17804,-9.12518"
       id="path1944" /><path
       style="fill:none;stroke:#000000;stroke-width:0.26458333;stroke-linecap:round;stroke-linejoin:round;stroke-dasharray:none;paint-order:markers fill stroke;stroke-opacity:1"
       d="m 139.68181,176.33782 18.26651,-9.00741"
       id="path1946" /><path
       style="fill:none;stroke:#000000;stroke-width:0.26458333;stroke-linecap:round;stroke-linejoin:round;stroke-dasharray:none;stroke-opacity:1;paint-order:markers fill stroke"
       d="m 134.12009,173.55696 5.99329,-3.12952"
       id="path1948"
       sodipodi:nodetypes="cc" /><path
       style="fill:none;stroke:#000000;stroke-width:0.26458333;stroke-linecap:round;stroke-linejoin:round;stroke-dasharray:none;paint-order:markers fill stroke;stroke-opacity:1"
       d="m 149.37497,166.46521 3.06753,-1.7304"
       id="path1950" /><path
       style="fill:none;stroke:#000000;stroke-width:0.26458333;stroke-linecap:round;stroke-linejoin:round;stroke-dasharray:none;paint-order:markers fill stroke;stroke-opacity:1"
       d="m 129.0033,172.22214 9.92665,-4.81307"
       id="path1952" /><path
       style="fill:none;stroke:#000000;stroke-width:0.26458333;stroke-linecap:round;stroke-linejoin:round;stroke-dasharray:none;paint-order:markers fill stroke;stroke-opacity:1"
       d="m 123.77528,172.33338 15.15467,-7.36261"
       id="path1954" /><path
       style="fill:none;stroke:#000000;stroke-width:0.26458333;stroke-linecap:round;stroke-linejoin:round;stroke-dasharray:none;paint-order:markers fill stroke;stroke-opacity:1"
       d="m 120.61283,173.00079 17.31773,-8.46138"
       id="path1956"
       sodipodi:nodetypes="cc" /><path
       style="fill:none;stroke:#000000;stroke-width:0.26458333;stroke-linecap:round;stroke-linejoin:round;stroke-dasharray:none;paint-order:markers fill stroke;stroke-opacity:1"
       d="m 137.84644,164.54696 1.02892,-0.11123"
       id="path1958" /><path
       style="fill:none;stroke:#000000;stroke-width:0.26458333;stroke-linecap:round;stroke-linejoin:round;stroke-dasharray:none;paint-order:markers fill stroke;stroke-opacity:1"
       d="m 149.37497,164.02692 3.06753,0.70789 5.50582,2.5956 5.58449,3.77543 5.11255,4.79793 4.40466,5.8991 3.61811,6.7643 1.88772,4.71928"
       id="path1960" /><path
       style="fill:none;stroke:#000000;stroke-width:0.26458333;stroke-linecap:round;stroke-linejoin:round;stroke-dasharray:none;paint-order:markers fill stroke;stroke-opacity:1"
       d="m 30.894486,220.49791 150.166554,83.87079 78.64278,-69.41031 4.78309,-44.04885 -115.11194,-37.04109"
       id="path1998" /><path
       style="fill:none;stroke:#000000;stroke-width:0.26458333;stroke-linecap:round;stroke-linejoin:round;stroke-dasharray:none;paint-order:markers fill stroke;stroke-opacity:1"
       d="m 138.92995,150.55923 -22.3571,-7.11901 -90.238979,34.67735 156.705289,73.29468 81.44775,-60.50271"
       id="path2000" /><path
       style="fill:none;stroke:#000000;stroke-width:0.26458333;stroke-linecap:round;stroke-linejoin:round;stroke-dasharray:none;paint-order:markers fill stroke;stroke-opacity:1"
       d="m 149.37497,156.16145 107.44227,34.68671 -75.19386,54.90095 -147.870762,-67.87897 82.902012,-32.32707 22.27532,7.27556"
       id="path2002"
       sodipodi:nodetypes="cccccc" /><path
       style="fill:none;stroke:#000000;stroke-width:0.26458333;stroke-linecap:round;stroke-linejoin:round;stroke-dasharray:none;paint-order:markers fill stroke;stroke-opacity:1"
       d="M 138.92995,155.49289 116.69396,148.21733 37.240004,179.471"
       id="path2004" /><path
       style="fill:none;stroke:#000000;stroke-width:0.26458333;stroke-linecap:round;stroke-linejoin:round;stroke-dasharray:none;paint-order:markers fill stroke;stroke-opacity:1"
       d="m 149.37497,158.81839 104.32527,34.30556"
       id="path2006" /><path
       style="fill:none;stroke:#000000;stroke-width:0.26458333;stroke-linecap:round;stroke-linejoin:round;stroke-dasharray:none;paint-order:markers fill stroke;stroke-opacity:1"
       d="m 183.03916,251.41225 -1.97812,52.95645"
       id="path2008" /><path
       style="fill:none;stroke:#000000;stroke-width:0.26458333;stroke-linecap:round;stroke-linejoin:round;stroke-dasharray:none;paint-order:markers fill stroke;stroke-opacity:1"
       d="m 26.333871,178.11757 4.560615,42.38034"
       id="path2010" /><path
       style="fill:none;stroke:#000000;stroke-width:0.26458333;stroke-linecap:round;stroke-linejoin:round;stroke-dasharray:none;paint-order:markers fill stroke;stroke-opacity:1"
       d="m 116.65463,145.54307 0.0393,2.67426"
       id="path2012" /><path
       style="fill:none;stroke:#000000;stroke-width:0.26458333;stroke-linecap:round;stroke-linejoin:round;stroke-dasharray:none;paint-order:markers fill stroke;stroke-opacity:1"
       d="m -20.217762,38.240203 8.509437,20.633996 5.6173421,-0.667406 6.00666331,-6.006663 -2.28030611,-5.450488 -4.3937634,-2.836482 0.1112335,-7.508327 -2.1134546,-5.283636 -5.4504908,0.611788 z"
       id="path2058" /><path
       style="fill:none;stroke:#000000;stroke-width:0.26458333;stroke-linecap:round;stroke-linejoin:round;stroke-dasharray:none;paint-order:markers fill stroke;stroke-opacity:1"
       d="m -14.211101,31.732985 2.280309,5.506108 -0.111236,7.285858 4.3937631,3.058948 2.2246908,5.28364 -6.2847509,6.00666"
       id="path2060" /><path
       style="fill:none;stroke:#000000;stroke-width:0.26458333;stroke-linecap:round;stroke-linejoin:round;stroke-dasharray:none;paint-order:markers fill stroke;stroke-opacity:1"
       d="m -11.930792,37.239093 5.2836364,-0.83426"
       id="path2062" /><path
       style="fill:none;stroke:#000000;stroke-width:0.26458333;stroke-linecap:round;stroke-linejoin:round;stroke-dasharray:none;paint-order:markers fill stroke;stroke-opacity:1"
       d="M -12.042028,44.524951 -6.7583891,43.91316"
       id="path2064" /><path
       style="fill:none;stroke:#000000;stroke-width:0.26458333;stroke-linecap:round;stroke-linejoin:round;stroke-dasharray:none;paint-order:markers fill stroke;stroke-opacity:1"
       d="m -7.6482649,47.583899 5.2836392,-0.834257"
       id="path2066" /><path
       style="fill:none;stroke:#000000;stroke-width:0.26458333;stroke-linecap:round;stroke-linejoin:round;stroke-dasharray:none;paint-order:markers fill stroke;stroke-opacity:1"
       d="M -5.4235741,52.867539 -0.08431959,52.20013"
       id="path2068" /><path
       style="fill:none;stroke:#000000;stroke-width:0.26458333;stroke-linecap:round;stroke-linejoin:round;stroke-dasharray:none;paint-order:markers fill stroke;stroke-opacity:1"
       d="m 29.898539,27.561082 -6.567665,6.056408 8.022775,19.034429 4.247354,-0.471929 6.687622,-5.875074 -2.086325,-4.821959 -4.129371,-2.595605 0.432602,-6.960936 -1.848385,-4.994571 z"
       id="path2070"
       sodipodi:nodetypes="cccccccccc" /><path
       style="fill:none;stroke:#000000;stroke-width:0.26458333;stroke-linecap:round;stroke-linejoin:round;stroke-dasharray:none;paint-order:markers fill stroke;stroke-opacity:1"
       d="m 29.898539,27.561082 2.005695,4.640625 -0.353947,7.275555 4.247351,2.713588 2.066083,4.872224 -6.510072,5.588845"
       id="path2072"
       sodipodi:nodetypes="cccccc" /><path
       style="fill:none;stroke:#000000;stroke-width:0.26458333;stroke-linecap:round;stroke-linejoin:round;stroke-dasharray:none;paint-order:markers fill stroke;stroke-opacity:1"
       d="m 37.863718,47.063074 4.424907,-0.758158"
       id="path2074"
       sodipodi:nodetypes="cc" /><path
       style="fill:none;stroke:#000000;stroke-width:0.26458333;stroke-linecap:round;stroke-linejoin:round;stroke-dasharray:none;paint-order:markers fill stroke;stroke-opacity:1"
       d="M 35.797636,42.19085 40.2023,41.482957"
       id="path2076" /><path
       style="fill:none;stroke:#000000;stroke-width:0.26458333;stroke-linecap:round;stroke-linejoin:round;stroke-dasharray:none;paint-order:markers fill stroke;stroke-opacity:1"
       d="m 31.550285,39.477262 4.522642,-0.58991"
       id="path2078" /><path
       style="fill:none;stroke:#000000;stroke-width:0.26458333;stroke-linecap:round;stroke-linejoin:round;stroke-dasharray:none;paint-order:markers fill stroke;stroke-opacity:1"
       d="m 31.904234,32.201707 4.601297,-0.275291"
       id="path2080" /><path
       style="fill:none;stroke:#000000;stroke-width:0.26458333;stroke-linecap:round;stroke-linejoin:round;stroke-dasharray:none;paint-order:markers fill stroke;stroke-opacity:1"
       d="M 27.774863,170.4766 111.1488,139.48666 53.258974,-3.743473 -42.463748,-0.28266797 Z"
       id="path2138" /><path
       style="fill:none;stroke:#000000;stroke-width:0.26458333;stroke-linecap:round;stroke-linejoin:round;stroke-dasharray:none;paint-order:markers fill stroke;stroke-opacity:1"
       d="M 25.179259,176.8083 115.71077,142.59352 55.143604,-8.3114303 -49.528049,-5.0856301 Z"
       id="path2140"
       sodipodi:nodetypes="ccccc" /><path
       style="fill:none;stroke:#000000;stroke-width:0.26458333;stroke-linecap:round;stroke-linejoin:round;stroke-dasharray:none;paint-order:markers fill stroke;stroke-opacity:1"
       d="M -36.666299,13.811692 39.793243,9.1523842 94.981524,145.496"
       id="path2142" /><path
       style="fill:none;stroke:#000000;stroke-width:0.26458333;stroke-linecap:round;stroke-linejoin:round;stroke-dasharray:none;paint-order:markers fill stroke;stroke-opacity:1"
       d="M 39.793241,9.1523839 53.258971,-3.7434732"
       id="path2144" /><path
       style="fill:none;stroke:#000000;stroke-width:0.26458333;stroke-linecap:round;stroke-linejoin:round;stroke-dasharray:none;paint-order:markers fill stroke;stroke-opacity:1"
       d="M -49.528049,-5.0856301 -61.89145,12.931315 8.5044707,184.08385 25.179258,176.8083"
       id="path2146" /></g></svg>
